CP4_T0_10_IK_adjusted.mot
version=1
nRows=34
nColumns=11
inDegrees=no
endheader
                time	         pelvis_tilt	           pelvis_tx	           pelvis_ty	       hip_flexion_l	       hip_flexion_r	        knee_angle_l	        knee_angle_r	       ankle_angle_l	       ankle_angle_r	    lumbar_extension	
          0.58000000	         -0.01999052	          0.64097923	          0.88274337	          0.65791021	         -0.15926178	         -0.45958415	         -0.51788976	         -0.13734395	         -0.00757155	         -0.07420497	
          0.59000000	         -0.02436438	          0.65337363	          0.88218385	          0.67366803	         -0.16790033	         -0.50205032	         -0.51406256	         -0.13135273	         -0.03146169	         -0.06835061	
          0.60000000	         -0.02714834	          0.66632157	          0.88190291	          0.68064953	         -0.17855055	         -0.53137615	         -0.50994622	         -0.12060843	         -0.05699509	         -0.06219829	
          0.61000000	         -0.02983094	          0.67934507	          0.88201520	          0.68285439	         -0.18800194	         -0.55363320	         -0.50726694	         -0.10695770	         -0.08714396	         -0.05734373	
          0.62000000	         -0.03437916	          0.69244933	          0.88237116	          0.68414312	         -0.19244375	         -0.57506966	         -0.50888590	         -0.09178956	         -0.11925475	         -0.04961828	
          0.63000000	         -0.04045084	          0.70554702	          0.88295078	          0.68542945	         -0.19116801	         -0.59561353	         -0.51594714	         -0.07271249	         -0.15556462	         -0.04041326	
          0.64000000	         -0.04753395	          0.71859627	          0.88389172	          0.68585077	         -0.18434330	         -0.61205880	         -0.52899400	         -0.05405558	         -0.19237242	         -0.03019958	
          0.65000000	         -0.05457170	          0.73140120	          0.88501390	          0.68419106	         -0.17430850	         -0.62380035	         -0.54472852	         -0.03856777	         -0.23212738	         -0.02086546	
          0.66000000	         -0.06106355	          0.74388562	          0.88634104	          0.68060668	         -0.16176236	         -0.63218859	         -0.56322628	         -0.02408377	         -0.27439111	         -0.01276159	
          0.67000000	         -0.06580283	          0.75613717	          0.88790091	          0.67413941	         -0.14983238	         -0.63867400	         -0.58066820	         -0.00945224	         -0.32295518	         -0.00709251	
          0.68000000	         -0.06958481	          0.76810617	          0.88964073	          0.66519114	         -0.13663439	         -0.64239769	         -0.60050211	          0.00487149	         -0.36827007	         -0.00346063	
          0.69000000	         -0.07289953	          0.77975098	          0.89161267	          0.65469932	         -0.12126687	         -0.64369668	         -0.62305371	          0.01677103	         -0.41018951	         -0.00043515	
          0.70000000	         -0.07535426	          0.79120217	          0.89360328	          0.64354619	         -0.10431021	         -0.64513368	         -0.64747828	          0.03028872	         -0.44287583	          0.00041506	
          0.71000000	         -0.07921385	          0.80231416	          0.89558376	          0.63259908	         -0.08298589	         -0.64350134	         -0.67402774	          0.04103220	         -0.45966403	          0.00305352	
          0.72000000	         -0.08068680	          0.81327966	          0.89773664	          0.61962502	         -0.06292456	         -0.64217748	         -0.69870311	          0.05079299	         -0.46677797	          0.00181809	
          0.73000000	         -0.08243747	          0.82400449	          0.89988503	          0.60590957	         -0.04049803	         -0.63855279	         -0.72470366	          0.06044152	         -0.45694572	          0.00140971	
          0.74000000	         -0.08365527	          0.83463922	          0.90212913	          0.59077922	         -0.01753172	         -0.63314128	         -0.74757513	          0.06939133	         -0.43809486	         -0.00013844	
          0.75000000	         -0.08433141	          0.84511553	          0.90442800	          0.57424838	          0.00552818	         -0.62590107	         -0.76755073	          0.07713470	         -0.41645394	         -0.00206602	
          0.76000000	         -0.08510081	          0.85545758	          0.90672122	          0.55739776	          0.02997799	         -0.61753107	         -0.78544067	          0.08423616	         -0.39286885	         -0.00380622	
          0.77000000	         -0.08604067	          0.86574778	          0.90902124	          0.54011270	          0.05549886	         -0.60814680	         -0.80162066	          0.09162062	         -0.36902389	         -0.00527730	
          0.78000000	         -0.08691904	          0.87590720	          0.91133149	          0.52141027	          0.08206949	         -0.59609036	         -0.81665887	          0.09869683	         -0.34669880	         -0.00694471	
          0.79000000	         -0.08801042	          0.88599948	          0.91349332	          0.50375163	          0.11010033	         -0.58505734	         -0.83099231	          0.10587972	         -0.32360289	         -0.00756893	
          0.80000000	         -0.08703097	          0.89617040	          0.91581695	          0.48287168	          0.13642982	         -0.57195835	         -0.84513558	          0.11155695	         -0.30041078	         -0.01029875	
          0.81000000	         -0.08345335	          0.90655474	          0.91825948	          0.45900270	          0.15918411	         -0.55903006	         -0.85595997	          0.11741846	         -0.27959041	         -0.01562841	
          0.82000000	         -0.08560316	          0.91600712	          0.91983957	          0.44356637	          0.19236147	         -0.54844082	         -0.87124311	          0.12403336	         -0.25921333	         -0.01576081	
          0.83000000	         -0.08260430	          0.92586328	          0.92174836	          0.42157113	          0.21837607	         -0.53656158	         -0.88238622	          0.13037088	         -0.23947556	         -0.02112334	
          0.84000000	         -0.08046677	          0.93555381	          0.92334502	          0.40093955	          0.24559415	         -0.52505237	         -0.89185338	          0.13715704	         -0.22359035	         -0.02571695	
          0.85000000	         -0.07666408	          0.94527385	          0.92481086	          0.37897522	          0.27096683	         -0.51455797	         -0.89937670	          0.14441228	         -0.20912954	         -0.03206774	
          0.86000000	         -0.07296650	          0.95492795	          0.92596825	          0.35743634	          0.29619453	         -0.50499327	         -0.90429841	          0.15360781	         -0.19682470	         -0.03828997	
          0.87000000	         -0.06858808	          0.96471446	          0.92690301	          0.33560456	          0.32007166	         -0.49571492	         -0.90654749	          0.16136490	         -0.18746222	         -0.04479809	
          0.88000000	         -0.06361230	          0.97442171	          0.92751962	          0.31397857	          0.34358229	         -0.48798294	         -0.90812892	          0.17057365	         -0.17770017	         -0.05218123	
          0.89000000	         -0.05859223	          0.98424357	          0.92794420	          0.29256645	          0.36524933	         -0.48106929	         -0.90503857	          0.17981109	         -0.17021681	         -0.05917658	
          0.90000000	         -0.05275180	          0.99419258	          0.92812948	          0.27081189	          0.38501211	         -0.47513410	         -0.89938885	          0.18962020	         -0.16487176	         -0.06693837	
          0.91000000	         -0.04607345	          1.00418303	          0.92810395	          0.24934278	          0.40238745	         -0.47139307	         -0.89033566	          0.20021300	         -0.15942689	         -0.07564700	
